<?xml version="1.0" standalone="no"?>
<!DOCTYPE svg PUBLIC "-//W3C//DTD SVG 20010904//EN"
 "http://www.w3.org/TR/2001/REC-SVG-20010904/DTD/svg10.dtd">
<svg version="1.0" xmlns="http://www.w3.org/2000/svg"
 width="490.000000pt" height="167.000000pt" viewBox="0 0 490.000000 167.000000"
 preserveAspectRatio="xMidYMid meet">

<g transform="translate(0.000000,167.000000) scale(0.100000,-0.100000)"
fill="#C33518" stroke="none">
<path d="M3369 1576 c-72 -21 -155 -62 -226 -111 l-65 -45 -26 60 -27 60 -235
-2 -235 -3 0 -705 0 -705 278 -3 277 -2 0 449 0 449 46 41 c54 47 102 65 156
58 48 -6 75 -29 99 -82 17 -37 19 -74 19 -477 l0 -438 275 0 275 0 0 454 0
454 33 28 c76 65 179 82 229 38 52 -47 53 -56 56 -531 l3 -443 281 0 280 0 -5
477 c-4 437 -6 486 -25 572 -62 278 -225 420 -483 421 -112 0 -271 -68 -398
-170 -48 -39 -66 -49 -71 -39 -49 83 -143 157 -234 185 -71 21 -219 27 -277
10z"/>
<path d="M73 1043 c3 -471 5 -502 25 -580 40 -153 118 -269 218 -328 70 -41
195 -69 284 -62 119 8 264 75 396 184 l42 34 20 -33 c66 -105 194 -174 347
-185 126 -9 241 29 386 128 l57 38 26 -59 25 -60 236 0 235 0 0 710 0 710
-280 0 -280 0 0 -454 0 -454 -32 -28 c-104 -87 -211 -84 -260 9 -23 42 -23 47
-26 485 l-3 442 -269 0 -270 0 0 -449 0 -449 -41 -37 c-98 -89 -211 -87 -256
5 -16 32 -18 78 -21 483 l-3 447 -280 0 -280 0 4 -497z"/>
</g>
</svg>
