<?xml version="1.0" standalone="no"?>
<!DOCTYPE svg PUBLIC "-//W3C//DTD SVG 20010904//EN"
 "http://www.w3.org/TR/2001/REC-SVG-20010904/DTD/svg10.dtd">
<svg version="1.0" xmlns="http://www.w3.org/2000/svg"
 width="243.000000pt" height="166.000000pt" viewBox="0 0 243.000000 166.000000"
 preserveAspectRatio="xMidYMid meet">

<g transform="translate(0.000000,166.000000) scale(0.100000,-0.100000)"
fill="#C33518" stroke="none">
<path d="M73 1033 c3 -471 5 -502 25 -580 40 -153 118 -269 218 -328 70 -41
195 -69 284 -62 119 8 264 75 396 184 l42 34 20 -33 c66 -105 194 -174 347
-185 126 -9 241 29 386 128 l57 38 26 -59 25 -60 236 0 235 0 0 710 0 710
-280 0 -280 0 0 -454 0 -454 -32 -28 c-104 -87 -211 -84 -260 9 -23 42 -23 47
-26 485 l-3 442 -269 0 -270 0 0 -449 0 -449 -41 -37 c-98 -89 -211 -87 -256
5 -16 32 -18 78 -21 483 l-3 447 -280 0 -280 0 4 -497z"/>
</g>
</svg>
